<?xml version="1.0" standalone="no"?>
<!DOCTYPE svg PUBLIC "-//W3C//DTD SVG 20010904//EN"
 "http://www.w3.org/TR/2001/REC-SVG-20010904/DTD/svg10.dtd">
<svg version="1.0" xmlns="http://www.w3.org/2000/svg"
 width="740.000000pt" height="740.000000pt" viewBox="0 0 740.000000 740.000000"
 preserveAspectRatio="xMidYMid meet">

<g transform="translate(0.000000,740.000000) scale(0.100000,-0.100000)"
fill="#000000" stroke="none">
<path d="M3515 7024 c-748 -57 -1335 -283 -1905 -733 -122 -97 -404 -379 -501
-501 -406 -514 -635 -1059 -715 -1705 -21 -170 -24 -567 -5 -730 76 -665 314
-1238 724 -1750 102 -127 373 -397 497 -496 515 -410 1079 -643 1745 -720 178
-21 578 -16 769 10 729 98 1368 405 1885 906 555 538 888 1200 992 1971 29
213 31 602 5 809 -80 639 -315 1203 -706 1695 -108 135 -385 412 -520 520
-123 97 -345 246 -480 320 -368 204 -802 340 -1245 390 -97 11 -458 20 -540
14z m370 -224 c88 -6 218 -20 288 -30 152 -23 387 -79 387 -92 0 -14 -149
-531 -155 -536 -3 -3 -44 4 -92 16 -231 57 -321 66 -613 67 -295 0 -395 -11
-629 -71 -52 -13 -95 -23 -96 -21 -5 5 -148 495 -152 519 -5 24 -1 27 49 42
190 55 461 98 683 109 137 7 178 7 330 -3z m188 -819 c219 -39 386 -89 578
-176 631 -283 1120 -865 1288 -1533 55 -222 66 -314 66 -577 -1 -268 -16 -385
-80 -618 -216 -786 -858 -1412 -1655 -1616 -211 -54 -312 -66 -570 -66 -257 0
-352 11 -572 66 -804 202 -1457 853 -1663 1654 -58 227 -70 323 -70 585 0 245
6 303 51 508 203 917 975 1637 1904 1776 163 24 163 24 390 21 162 -2 244 -8
333 -24z m1859 -128 c119 -122 160 -169 263 -308 210 -281 373 -603 476 -938
21 -71 39 -137 39 -147 0 -15 -40 -28 -271 -85 -148 -37 -272 -65 -275 -63 -2
3 -18 52 -35 109 -117 390 -316 729 -616 1049 l-70 74 191 203 c105 111 194
202 197 203 3 0 48 -44 101 -97z m-4182 -123 l192 -200 -84 -92 c-166 -183
-268 -322 -377 -516 -91 -163 -184 -393 -226 -559 -11 -40 -24 -73 -30 -73 -6
0 -130 29 -276 64 l-264 64 2 29 c4 44 70 254 120 383 119 303 321 640 522
875 69 80 211 225 220 225 5 0 95 -90 201 -200z m4695 -2681 c143 -34 264 -65
269 -70 11 -10 -62 -260 -120 -407 -104 -262 -242 -509 -413 -736 -97 -128
-285 -341 -317 -359 -13 -7 -25 0 -54 29 -20 22 -108 112 -194 202 l-157 162
88 98 c125 137 189 220 276 352 135 208 251 462 314 687 15 57 33 103 38 103
6 0 127 -28 270 -61z m-5201 24 c136 -469 318 -795 634 -1133 l79 -85 -111
-118 c-61 -65 -147 -157 -192 -204 l-81 -87 -24 20 c-58 46 -239 249 -329 369
-224 299 -394 632 -494 971 -20 67 -36 127 -36 135 0 11 69 32 263 81 144 36
267 66 274 67 6 1 14 -7 17 -16z m3190 -1820 c3 -10 37 -126 76 -258 39 -132
73 -247 75 -256 4 -13 -14 -21 -92 -42 -263 -70 -496 -99 -788 -100 -288 0
-493 24 -756 89 -88 22 -110 31 -106 43 2 9 37 132 78 274 67 236 76 258 94
254 328 -74 487 -92 765 -84 216 6 366 26 535 70 114 30 113 30 119 10z"/>
<path d="M3520 5730 c-631 -61 -1187 -398 -1533 -930 -307 -472 -400 -1060
-257 -1616 182 -704 750 -1272 1454 -1454 255 -66 564 -83 805 -46 624 96
1140 441 1464 981 352 586 377 1333 67 1947 -301 596 -866 1005 -1523 1102
-135 21 -353 27 -477 16z m493 -254 c732 -137 1301 -693 1453 -1420 32 -154
42 -393 24 -557 -90 -827 -761 -1498 -1591 -1590 -161 -17 -402 -7 -555 25
-772 161 -1342 785 -1435 1571 -15 123 -6 388 16 508 118 645 574 1177 1192
1391 104 36 248 70 363 86 99 13 430 5 533 -14z"/>
</g>
</svg>
